<svg width="16" height="19" viewBox="0 0 16 19" fill="none" xmlns="http://www.w3.org/2000/svg">
<path d="M14.5721 6.92255C14.0138 6.27505 13.1721 5.8988 12.0055 5.76755V5.10255C12.0055 3.9038 11.5221 2.7488 10.6721 1.9438C9.81379 1.1213 8.69713 0.736304 7.53879 0.850054C5.54713 1.0513 3.87213 3.07255 3.87213 5.26005V5.76755C2.70546 5.8988 1.86379 6.27505 1.30546 6.92255C0.497127 7.86755 0.522127 9.12755 0.613794 10.0026L1.19713 14.8763C1.37213 16.5826 2.03046 18.3326 5.61379 18.3326H10.2638C13.8471 18.3326 14.5055 16.5826 14.6805 14.8851L15.2638 9.9938C15.3555 9.12755 15.3721 7.86755 14.5721 6.92255ZM7.65546 2.0663C8.48879 1.98755 9.28046 2.2588 9.89713 2.84505C10.5055 3.42255 10.8471 4.24505 10.8471 5.10255V5.71505H5.03046V5.26005C5.03046 3.70255 6.25546 2.2063 7.65546 2.0663ZM4.95546 10.5888H4.94713C4.48879 10.5888 4.11379 10.1951 4.11379 9.7138C4.11379 9.23255 4.48879 8.8388 4.94713 8.8388C5.41379 8.8388 5.78879 9.23255 5.78879 9.7138C5.78879 10.1951 5.41379 10.5888 4.95546 10.5888ZM10.7888 10.5888H10.7805C10.3221 10.5888 9.94713 10.1951 9.94713 9.7138C9.94713 9.23255 10.3221 8.8388 10.7805 8.8388C11.2471 8.8388 11.6221 9.23255 11.6221 9.7138C11.6221 10.1951 11.2471 10.5888 10.7888 10.5888Z" fill="white"/>
</svg>
