<svg width="77" height="35" viewBox="0 0 77 35" fill="none" xmlns="http://www.w3.org/2000/svg">
<path d="M32.3347 24.2421L35.2908 10.2599H30.2094L30.9106 6.92621H45.4052L44.704 10.2599H39.6225L36.6664 24.2421H32.3347Z" fill="white"/>
<path d="M40.5611 24.2421L50.8319 6.92621H55.5088L58.4649 24.2421H54.2681L53.5399 20.315H47.5953L45.2272 24.2421H40.5503H40.5611ZM48.8684 17.1161H53.4104L52.4179 11.0906L48.8684 17.1161Z" fill="white"/>
<path d="M67.7757 24.5064C65.893 24.5064 64.3395 24.1666 63.1096 23.4869C61.8796 22.8072 61.0327 21.8147 60.5688 20.5146C60.1049 19.2146 60.0671 17.6502 60.4609 15.8215C61.0867 12.9355 62.3436 10.6861 64.2262 9.07319C66.1088 7.46028 68.655 6.65112 71.8646 6.65112C72.9219 6.65112 73.8659 6.71586 74.6858 6.83993C75.5112 6.964 76.2826 7.1528 77 7.40633L76.1909 11.1176C75.4896 10.8317 74.7506 10.6322 73.9738 10.5243C73.197 10.4164 72.3663 10.3624 71.487 10.3624C69.6421 10.3624 68.1803 10.8048 67.1014 11.6948C66.0279 12.5849 65.2835 13.9605 64.8681 15.8215C64.4743 17.6125 64.5606 18.8963 65.1217 19.6677C65.6881 20.4391 66.8371 20.8221 68.5794 20.8221C69.0973 20.8221 69.6367 20.7789 70.1923 20.698C70.748 20.6171 71.2119 20.5146 71.5895 20.3905L72.2907 17.1108H68.5525L69.1189 14.3974H76.4876L74.6589 22.9744C73.9576 23.3682 73.0352 23.7243 71.8916 24.0371C70.7426 24.35 69.3724 24.5064 67.7757 24.5064Z" fill="white"/>
<path d="M13.6001 30.2192V34.5293H52.9897L54.6565 30.2192H13.6001Z" fill="#D70321"/>
<path style="mix-blend-mode:multiply" opacity="0.2" d="M13.6001 30.2192V34.5293H52.9897L54.6565 30.2192H13.6001Z" fill="url(#paint0_linear_203_310)"/>
<path d="M14.0587 29.8955C14.0317 29.1457 14.1126 28.1423 14.2529 27.549C17.8185 27.0743 20.6722 25.7311 22.8191 23.514C24.9661 21.2969 26.4711 18.1304 27.3342 14.0037C28.0301 10.7725 28.0354 8.1239 27.3558 6.06325C26.6707 4.00261 25.4354 2.47601 23.6337 1.48345C21.8373 0.496281 19.5987 0 16.9285 0C12.3325 0 8.70747 1.08427 6.05885 3.25819C3.41561 5.4429 1.56535 9.01936 0.502662 14.0091C-0.387407 18.1035 -0.0961117 21.2699 1.38194 23.4978C2.85999 25.7257 5.15799 27.0797 8.27593 27.549C7.8282 29.8901 8.06015 31.6379 8.9664 32.7977C9.87266 33.9521 11.6042 34.5293 14.172 34.5293C14.2744 34.5293 14.3823 34.5293 14.4902 34.5239C14.0856 32.9164 14.0209 31.2171 14.0587 29.8955ZM8.44315 21.2376C7.60703 20.7089 7.12153 19.8512 6.98128 18.6699C6.84103 17.4831 6.9651 15.9295 7.35889 14.0091C8.00081 10.9991 8.97719 8.87371 10.2826 7.63301C11.5935 6.39231 13.3898 5.77196 15.677 5.77196C17.3223 5.77196 18.5684 6.0201 19.4153 6.52717C20.2622 7.02884 20.7585 7.87576 20.8987 9.0787C21.039 10.2762 20.8825 11.9215 20.4402 14.0091C19.8576 16.7657 18.9028 18.7939 17.5758 20.0886C16.2542 21.3832 14.4633 22.0305 12.203 22.0305C10.5308 22.0305 9.27928 21.7662 8.44315 21.2376Z" fill="url(#paint1_linear_203_310)"/>
<defs>
<linearGradient id="paint0_linear_203_310" x1="57.3699" y1="32.377" x2="-5.79261" y2="32.377" gradientUnits="userSpaceOnUse">
<stop stop-color="white"/>
<stop offset="1"/>
</linearGradient>
<linearGradient id="paint1_linear_203_310" x1="0.000986682" y1="17.2673" x2="27.8628" y2="17.2673" gradientUnits="userSpaceOnUse">
<stop stop-color="#FF4357"/>
<stop offset="1" stop-color="#D62B3B"/>
</linearGradient>
</defs>
</svg>
