<svg width="67" height="69" viewBox="0 0 67 69" fill="none" xmlns="http://www.w3.org/2000/svg">
<path d="M33.4183 36.6199C43.3363 36.6199 51.3764 28.5797 51.3764 18.6617C51.3764 8.74374 43.3363 0.703613 33.4183 0.703613C23.5003 0.703613 15.4602 8.74374 15.4602 18.6617C15.4602 28.5797 23.5003 36.6199 33.4183 36.6199Z" fill="white"/>
<path d="M33.4183 36.6199C43.3363 36.6199 51.3764 28.5797 51.3764 18.6617C51.3764 8.74374 43.3363 0.703613 33.4183 0.703613C23.5003 0.703613 15.4602 8.74374 15.4602 18.6617C15.4602 28.5797 23.5003 36.6199 33.4183 36.6199Z" fill="white"/>
<path d="M33.4181 40.165C15.4241 40.165 0.770264 52.2329 0.770264 67.1022C0.770264 68.1079 1.56042 68.898 2.56608 68.898H64.2702C65.2758 68.898 66.066 68.1079 66.066 67.1022C66.066 52.2329 51.4122 40.165 33.4181 40.165Z" fill="white"/>
<path d="M33.4181 40.165C15.4241 40.165 0.770264 52.2329 0.770264 67.1022C0.770264 68.1079 1.56042 68.898 2.56608 68.898H64.2702C65.2758 68.898 66.066 68.1079 66.066 67.1022C66.066 52.2329 51.4122 40.165 33.4181 40.165Z" fill="white"/>
</svg>
