<svg width="26" height="30" viewBox="0 0 26 30" fill="none" xmlns="http://www.w3.org/2000/svg">
<path d="M19.2424 8.49012V8.93703L19.6865 8.98699C21.5428 9.19583 22.8009 9.7842 23.617 10.7296C24.7966 12.1247 24.7968 14.0199 24.6468 15.44L23.6802 23.5449L23.6801 23.5449L23.6793 23.5528C23.5377 24.9263 23.2081 26.2139 22.2769 27.1675C21.354 28.1127 19.7497 28.819 16.8552 28.819H9.14696C6.25244 28.819 4.64841 28.1127 3.72553 27.166C2.79435 26.2107 2.46453 24.9196 2.32288 23.5386L2.32295 23.5386L2.32195 23.5302L1.3554 15.4547C1.20494 14.0155 1.1932 12.1238 2.3844 10.7305C3.20046 9.78459 4.45874 9.1959 6.31571 8.98699L6.75981 8.93703V8.49012V7.64885C6.75981 4.24104 9.3783 1.14049 12.3876 0.835974C14.161 0.662023 15.8679 1.24934 17.1862 2.51255L17.1883 2.51457C18.4936 3.75077 19.2424 5.53229 19.2424 7.38776V8.49012ZM12.4844 1.85682L12.4844 1.85681L12.4817 1.85708C11.1607 1.98917 9.96027 2.75405 9.09894 3.80331C8.23601 4.85451 7.67997 6.22986 7.67997 7.64885V8.4031V8.9031H8.17997H17.8222H18.3222V8.4031V7.38776C18.3222 5.8356 17.7041 4.33911 16.5919 3.28315C15.465 2.21185 14.0099 1.71265 12.4844 1.85682ZM8.04183 16.9823H8.05564C9.11427 16.9823 9.93705 16.0824 9.93705 15.0318C9.93705 13.9778 9.1111 13.0813 8.04183 13.0813C6.9832 13.0813 6.16042 13.9811 6.16042 15.0318C6.16042 16.0824 6.9832 16.9823 8.04183 16.9823ZM17.7117 16.9823H17.7255C18.7841 16.9823 19.6069 16.0824 19.6069 15.0318C19.6069 13.9778 18.781 13.0813 17.7117 13.0813C16.6531 13.0813 15.8303 13.9811 15.8303 15.0318C15.8303 16.0824 16.6531 16.9823 17.7117 16.9823Z" stroke="black" stroke-opacity="0.6"/>
</svg>
