<svg width="49" height="49" viewBox="0 0 49 49" fill="none" xmlns="http://www.w3.org/2000/svg">
<path d="M4.71533 25.7217H38.8545" stroke="black" stroke-opacity="0.6" stroke-width="2.33209" stroke-miterlimit="10" stroke-linecap="round" stroke-linejoin="round"/>
<path d="M38.8545 21.0423V35.4008C38.7943 41.1242 37.2278 42.5701 31.2635 42.5701H12.3063C6.24161 42.5701 4.71533 41.0639 4.71533 35.0795V21.0423C4.71533 15.6202 5.98049 13.8731 10.7399 13.5919C11.2219 13.5718 11.744 13.5518 12.3063 13.5518H31.2635C37.3283 13.5518 38.8545 15.0579 38.8545 21.0423Z" stroke="black" stroke-opacity="0.6" stroke-width="2.33209" stroke-linecap="round" stroke-linejoin="round"/>
<path d="M44.8789 13.9129V27.9501C44.8789 33.3723 43.6138 35.1194 38.8544 35.4005V21.042C38.8544 15.0576 37.3281 13.5514 31.2634 13.5514H12.3062C11.7439 13.5514 11.2217 13.5715 10.7397 13.5916C10.8 7.86826 12.3664 6.42236 18.3308 6.42236H37.2879C43.3527 6.42236 44.8789 7.9285 44.8789 13.9129Z" stroke="black" stroke-opacity="0.6" stroke-width="2.33209" stroke-linecap="round" stroke-linejoin="round"/>
<path d="M11.2419 36.1636H14.696" stroke="black" stroke-opacity="0.6" stroke-width="2.33209" stroke-miterlimit="10" stroke-linecap="round" stroke-linejoin="round"/>
<path d="M18.9937 36.1636H25.9018" stroke="black" stroke-opacity="0.6" stroke-width="2.33209" stroke-miterlimit="10" stroke-linecap="round" stroke-linejoin="round"/>
</svg>
