<svg width="38" height="39" viewBox="0 0 38 39" fill="none" xmlns="http://www.w3.org/2000/svg">
<path d="M21.0721 33.9512C20.046 35.3194 18.3669 35.3194 17.3408 33.9512L15.0087 30.8418C14.7444 30.4998 14.1847 30.2199 13.7649 30.2199H12.9875C6.76863 30.2199 3.65918 28.6652 3.65918 20.8915V13.1179C3.65918 6.899 6.76863 3.78955 12.9875 3.78955H25.4253C31.6443 3.78955 34.7537 6.899 34.7537 13.1179V20.8915" stroke="#171717" stroke-opacity="0.6" stroke-width="2.33209" stroke-miterlimit="10" stroke-linecap="round" stroke-linejoin="round"/>
<path d="M28.8457 33.9976C31.5934 33.9976 33.8208 31.7702 33.8208 29.0225C33.8208 26.2748 31.5934 24.0474 28.8457 24.0474C26.0981 24.0474 23.8706 26.2748 23.8706 29.0225C23.8706 31.7702 26.0981 33.9976 28.8457 33.9976Z" stroke="#171717" stroke-opacity="0.6" stroke-width="2.33209" stroke-linecap="round" stroke-linejoin="round"/>
<path d="M34.7537 34.9307L33.199 33.376" stroke="#171717" stroke-opacity="0.6" stroke-width="2.33209" stroke-linecap="round" stroke-linejoin="round"/>
<path d="M25.4199 17.8286H25.4339" stroke="#171717" stroke-opacity="0.6" stroke-width="2.33209" stroke-linecap="round" stroke-linejoin="round"/>
<path d="M19.1995 17.8286H19.2135" stroke="#171717" stroke-opacity="0.6" stroke-width="2.33209" stroke-linecap="round" stroke-linejoin="round"/>
<path d="M12.979 17.8286H12.993" stroke="#171717" stroke-opacity="0.6" stroke-width="2.33209" stroke-linecap="round" stroke-linejoin="round"/>
</svg>
